# xmcd
#
# Track frame offsets: 
#        150
#        17886
#        35927
#        57247
#        67349
#        91981
#        119306
#        139185
#        153998
#        165959
#
# Disc length: 2519 seconds
#
# Revision: 0
# Processed by: cddbd v1.5.2PL0 Copyright (c) Steve Scherf et al.
# Submitted via: ExactAudioCopy v0.99pb4
#
DISCID=8909d50a
DTITLE=Stevie Ray Vaughan Tribute - Lenny
DYEAR=2009
DGENRE=Blues/Rock
TTITLE0=Howard Hart - The Things That I Used To Do
TTITLE1=James Ryan - Change It
TTITLE2=Carlo Fragnito - Couldn't Stand The Weather
TTITLE3=Brian Tarquin - House Is A Rockin'
TTITLE4=Pom - Life By The Drop
TTITLE5=Steve Booke - The Sky Is Crying
TTITLE6=Doug Doppler - Crossfire
TTITLE7=Larry Van Fleet - Telephone Song
TTITLE8=James Ryan - Life Without You
TTITLE9=Buddy Guy and Junior Wells - Stormy Monday
EXTD=
EXTT0=
EXTT1=
EXTT2=
EXTT3=
EXTT4=
EXTT5=
EXTT6=
EXTT7=
EXTT8=
EXTT9=
PLAYORDER=
